<svg xmlns="http://www.w3.org/2000/svg" width="268" height="26" viewBox="0 0 268 26" fill="none"><path d="M90.093 8.90233C89.5542 8.49417 88.8957 8.20029 88.1501 8.03159C87.4154 7.86288 86.6426 7.78125 85.859 7.78125C84.395 7.78125 83.1706 7.98261 82.1202 8.40165C79.8617 9.29416 78.8495 11.6016 78.6209 12.7281L78.5828 13.1363H83.0019L83.1053 12.5105C83.1651 12.1567 83.4155 11.656 83.6821 11.4656C84.025 11.2207 84.5148 11.101 85.1352 11.101C85.7556 11.101 86.1692 11.2316 86.3433 11.4819C86.5229 11.754 86.5991 12.0479 86.4576 12.8316L86.376 13.2996C85.9188 13.3322 85.3637 13.3866 84.7216 13.4465C83.8182 13.5336 82.9801 13.6533 82.1692 13.8057C81.3202 13.9635 80.5257 14.2139 79.8019 14.5458C79.0454 14.8941 78.4032 15.3785 77.8862 15.9934C77.4182 16.554 77.0699 17.1308 76.8903 18.1267C76.6726 19.3512 76.9992 20.4342 77.81 21.1689C78.6155 21.8981 79.7039 22.2682 81.0536 22.2682C82.5175 22.2682 83.693 21.8818 84.5529 21.1199C84.727 20.9675 84.8957 20.8043 85.0481 20.6301C85.0481 21.1852 85.1896 21.6968 85.6195 22.1158H90.6535C90.6535 22.1158 89.9732 21.2886 90.3868 18.9648C90.8004 16.641 91.3555 13.3431 91.3555 13.3431C91.546 12.271 91.5243 11.3567 91.2848 10.6384C91.0453 9.90912 90.6426 9.32682 90.0766 8.90233H90.093ZM85.6304 17.5227C85.478 17.9036 85.1569 18.2356 84.6671 18.5131C84.1447 18.8125 83.595 18.9648 83.0291 18.9648C82.6318 18.9648 82.3706 18.8723 82.2182 18.671C82.0658 18.475 82.0223 18.1812 82.0876 17.8002C82.1692 17.3431 82.2345 17.0601 82.6916 16.6356C83.0018 16.3472 83.6223 16.0914 84.4114 15.9281C84.678 15.8628 84.9828 15.803 85.3801 15.7431C85.5705 15.7104 85.7665 15.6832 85.9569 15.656L85.6304 17.5227Z" fill="#1B1448"></path><path d="M131.007 7.78125C129.728 7.78125 128.656 8.14043 127.818 8.84247C127.41 9.18532 127.04 9.59892 126.713 10.0615C126.534 9.77307 126.686 8.2656 126.686 8.2656L126.713 8.04791H122.37L119.203 25.909H124.253L125.01 21.6533L125.07 21.0764C125.168 21.1907 125.271 21.2995 125.385 21.4084C126.022 21.9907 126.947 22.2845 128.139 22.2845C130.441 22.2845 134.463 21.3322 135.595 14.954C136.378 10.5295 135.889 7.78125 131.007 7.78125ZM130.555 14.8343C130.343 16.0261 129.619 18.807 127.491 18.807C126.925 18.807 126.496 18.671 126.223 18.3934C125.957 18.1267 125.81 17.7567 125.777 17.2995L126.702 12.0914C126.8 11.9009 127.034 11.6887 127.388 11.4819C127.818 11.2316 128.324 11.101 128.885 11.101C130.452 11.101 130.996 12.32 130.55 14.8343H130.555Z" fill="#1B1448"></path><path d="M162.408 7.64526C161.129 7.64526 160.052 8.05342 159.192 8.85886C158.865 9.16362 158.555 9.6262 158.332 10.0017C158.283 9.65341 158.267 9.1092 158.408 8.3092L158.457 8.04798H154.18L151.682 22.1159H156.759L158.484 12.3854C159.197 11.6452 159.943 10.9976 161.124 10.9976C161.401 10.9976 161.663 11.0139 161.908 11.0412C162.169 11.0684 162.435 11.1173 162.697 11.1881L163.225 11.3296L163.84 7.86295L163.518 7.77587C163.197 7.6888 162.822 7.65071 162.397 7.65071L162.408 7.64526Z" fill="#1B1448"></path><path d="M118.011 14.6546C117.521 14.3662 116.988 14.1376 116.428 13.9798C115.889 13.8274 115.41 13.6913 114.975 13.5879C114.06 13.3539 113.364 13.1036 112.966 12.8587C112.683 12.6845 112.422 12.2982 112.52 11.7431C112.607 11.2587 112.906 11.0247 113.075 10.9267C113.331 10.7798 113.652 10.7036 114.028 10.7036C114.338 10.7036 114.626 10.7907 114.882 10.9594C115.062 11.0791 115.328 11.4873 115.198 12.2383L115.056 13.0437L119.508 13.0709L120.019 13.0818L120.047 12.5811C120.101 11.3458 119.9 10.3608 119.443 9.65872C118.98 8.95668 118.321 8.46145 117.472 8.1839C116.667 7.92267 115.72 7.78662 114.659 7.78662C112.841 7.78662 111.285 8.12948 110.044 8.80974C108.711 9.5281 107.9 10.6437 107.638 12.1186C107.459 13.1362 107.644 13.675 108.03 14.2628C108.417 14.8614 108.977 15.3403 109.701 15.6832C110.398 16.0206 111.16 16.3036 111.97 16.5321C112.89 16.7879 113.576 16.9947 114.066 17.158C114.376 17.2668 114.583 17.8382 114.496 18.3335C114.409 18.8287 114.175 19.0464 113.864 19.1933C113.56 19.3348 113.184 19.3947 112.694 19.3947C112.03 19.3947 110.947 19.2151 111.16 18.0015L111.334 16.8804H106.381L106.321 17.3376C106.093 19.0355 106.517 20.3144 107.568 21.1362C108.575 21.9362 110.093 22.3389 112.079 22.3389C114.066 22.3389 115.72 21.9525 117.021 21.1906C118.332 20.4287 119.209 19.2586 119.437 17.9797C119.584 17.1471 119.513 16.4505 119.225 15.9117C118.947 15.3893 118.539 14.9702 118.022 14.66L118.011 14.6546Z" fill="#1B1448"></path><path d="M103.595 14.6546C103.105 14.3662 102.572 14.1376 102.011 13.9798C101.473 13.8274 100.994 13.6913 100.558 13.5879C99.644 13.3539 98.9474 13.1036 98.5502 12.8587C98.2672 12.6845 98.006 12.2982 98.1039 11.7431C98.191 11.2587 98.4903 11.0247 98.659 10.9267C98.9148 10.7798 99.2359 10.7036 99.6114 10.7036C99.9216 10.7036 100.21 10.7907 100.466 10.9594C100.645 11.0791 100.912 11.4873 100.781 12.2383L100.64 13.0437L105.092 13.0709L105.603 13.0818L105.63 12.5811C105.685 11.3458 105.483 10.3608 105.026 9.65872C104.564 8.95668 103.905 8.46145 103.056 8.1839C102.251 7.92267 101.304 7.78662 100.243 7.78662C98.425 7.78662 96.8685 8.12948 95.6277 8.80974C94.2944 9.5281 93.4835 10.6437 93.2223 12.1186C93.0427 13.1362 93.2278 13.675 93.6141 14.2628C94.0005 14.8614 94.5611 15.3403 95.2849 15.6832C95.9815 16.0206 96.7434 16.3036 97.5543 16.5321C98.4685 16.7879 99.1542 16.9947 99.6495 17.158C99.9597 17.2668 100.166 17.8382 100.079 18.3335C99.9923 18.8287 99.7583 19.0464 99.4481 19.1933C99.1434 19.3348 98.7679 19.3947 98.2781 19.3947C97.6141 19.3947 96.5311 19.2151 96.7434 18.0015L96.9175 16.8804H91.9652L91.9053 17.3376C91.6822 19.0355 92.1012 20.3144 93.1516 21.1362C94.1584 21.9362 95.6767 22.3389 97.6631 22.3389C99.6495 22.3389 101.304 21.9525 102.605 21.1906C103.916 20.4287 104.792 19.2586 105.021 17.9797C105.168 17.1471 105.097 16.4505 104.809 15.9117C104.531 15.3893 104.123 14.9702 103.606 14.66L103.595 14.6546Z" fill="#1B1448"></path><path d="M145.559 7.75398C144.128 7.75398 142.784 8.04785 141.57 8.61928C140.33 9.20158 139.274 10.0506 138.436 11.1335C137.598 12.2165 137.042 13.5118 136.776 14.992C136.362 17.3376 136.721 19.1661 137.859 20.4233C138.985 21.675 140.694 22.3062 142.931 22.3062C144.335 22.3062 145.663 22.0233 146.887 21.4682C148.117 20.9131 149.178 20.075 150.038 18.9757C150.887 17.8872 151.453 16.543 151.731 14.992C152.123 12.7716 151.774 10.992 150.686 9.69682C149.592 8.40703 147.872 7.74854 145.57 7.74854L145.559 7.75398ZM143.143 11.6233C143.715 11.0029 144.319 10.6982 144.993 10.6982C145.668 10.6982 146.163 11.0138 146.534 11.6288C146.915 12.2764 146.963 13.4084 146.686 14.9811C146.381 16.6845 145.935 17.86 145.353 18.4695C144.776 19.0736 144.188 19.3566 143.497 19.3566C142.844 19.3566 142.343 19.0518 141.968 18.4206C141.587 17.7729 141.538 16.6138 141.826 14.9811C142.109 13.3975 142.55 12.2655 143.143 11.6233Z" fill="#1B1448"></path><path d="M172.264 18.8287C171.997 18.8723 171.72 18.8995 171.448 18.9158C171.132 18.9321 170.762 18.943 170.348 18.943C170.071 18.943 169.891 18.8886 169.842 18.7906C169.815 18.7362 169.739 18.5076 169.864 17.8002L171.04 11.1934H174.054L174.626 7.98799H171.611L172.074 5.39209H168.395L168.346 5.65331C168.084 7.13357 167.295 7.98255 166.191 7.98255H165.004L164.433 11.188H166.615C166.033 11.4873 165.82 12.2111 165.576 13.5281L164.781 18.2246C164.536 19.5906 164.748 20.6246 165.401 21.294C166.044 21.9471 167.034 22.279 168.34 22.279C169.004 22.279 169.663 22.2736 170.31 22.2518C171.029 22.2355 171.54 22.1647 171.927 22.0341L172.242 21.9307L172.808 18.7471L172.28 18.8233L172.264 18.8287Z" fill="#1B1448"></path><path d="M76.9992 5.41393C75.9761 4.39081 74.2074 3.89014 71.606 3.89014H64.2646L61.0319 22.1104H66.1747L67.2849 15.8519C67.4264 15.8519 69.4509 15.8519 70.0822 15.8519C70.4359 15.8519 70.7734 15.8411 70.8278 15.8356C71.5461 15.7594 72.2319 15.6179 72.8795 15.4166C72.9611 15.3894 73.0373 15.373 73.1244 15.3458C73.4672 15.2261 73.8046 15.0955 74.1257 14.9431C75.9652 14.0669 77.4672 12.2819 78.0495 10.2846C78.5937 8.40711 78.2128 6.63297 77.0046 5.41938L76.9992 5.41393ZM72.9611 9.80029C72.7434 11.0411 72.4332 11.5146 71.8781 12.0425C71.3285 12.5595 70.5611 12.8261 69.6033 12.8261H67.8237L68.8686 6.95406H70.5938C71.557 6.95406 72.2536 7.17174 72.6672 7.59623C73.0319 7.9663 73.1461 8.7935 72.9665 9.80574L72.9611 9.80029Z" fill="#1B1448"></path><path d="M195.769 5.41393C194.745 4.39081 192.977 3.89014 190.375 3.89014H183.034L179.801 22.1104H184.944L186.054 15.8519C186.196 15.8519 188.22 15.8519 188.852 15.8519C189.205 15.8519 189.543 15.8411 189.597 15.8356C190.316 15.7594 191.001 15.6179 191.649 15.4166C191.731 15.3894 191.807 15.373 191.894 15.3458C192.237 15.2261 192.574 15.0955 192.895 14.9431C194.735 14.0669 196.237 12.2819 196.819 10.2846C197.363 8.40711 196.982 6.63297 195.774 5.41938L195.769 5.41393ZM191.731 9.80029C191.513 11.0411 191.203 11.5146 190.648 12.0425C190.098 12.5595 189.331 12.8261 188.373 12.8261H186.593L187.638 6.95406H189.363C190.326 6.95406 191.023 7.17174 191.437 7.59623C191.801 7.9663 191.916 8.7935 191.736 9.80574L191.731 9.80029Z" fill="#1B1448"></path><path d="M236.661 18.8287C236.394 18.8723 236.117 18.8995 235.845 18.9158C235.529 18.9321 235.159 18.943 234.745 18.943C234.468 18.943 234.288 18.8886 234.239 18.7906C234.212 18.7362 234.136 18.5076 234.261 17.8002L235.436 11.1934H238.451L239.023 7.98799H236.008L236.47 5.39209H232.791L232.742 5.65331C232.481 7.13357 231.692 7.98255 230.587 7.98255H229.401L228.83 11.188H231.012C230.43 11.4873 230.217 12.2111 229.972 13.5281L229.178 18.2246C228.933 19.5906 229.145 20.6246 229.798 21.294C230.44 21.9471 231.431 22.279 232.737 22.279C233.401 22.279 234.059 22.2736 234.707 22.2518C235.425 22.2355 235.937 22.1647 236.323 22.0341L236.639 21.9307L237.205 18.7471L236.677 18.8233L236.661 18.8287Z" fill="#1B1448"></path><path d="M207.611 7.71599C206.506 7.71599 205.548 7.95 204.77 8.41258C204.215 8.73911 203.73 9.13638 203.311 9.60441L204.351 3.90649H199.393L196.166 22.0941H201.238L202.958 12.4125L203.017 12.32C203.404 11.7486 204.128 10.6765 205.309 10.6765C205.88 10.6765 206.217 10.8452 206.375 11.2098C206.56 11.6343 206.555 12.3962 206.364 13.4847L204.835 22.0941H209.907L211.485 13.1908C211.807 11.384 211.6 10.0017 210.876 9.09285C210.147 8.17857 209.042 7.71599 207.6 7.71599H207.611Z" fill="#1B1448"></path><path d="M267.159 15.8466C266.881 15.3242 266.473 14.9052 265.956 14.595C265.466 14.3065 264.933 14.078 264.372 13.9201C263.834 13.7677 263.349 13.6317 262.919 13.5283C262.005 13.2943 261.308 13.0439 260.911 12.799C260.628 12.6249 260.367 12.2385 260.465 11.6834C260.552 11.1991 260.851 10.9651 261.02 10.8671C261.276 10.7202 261.597 10.644 261.972 10.644C262.282 10.644 262.571 10.731 262.827 10.8997C263.006 11.0195 263.273 11.4276 263.142 12.1841L263.001 12.9895L267.453 13.0167L267.964 13.0276L267.991 12.5269C268.046 11.2916 267.844 10.3066 267.387 9.60452C266.93 8.90248 266.266 8.40725 265.417 8.1297C264.612 7.86848 263.665 7.73242 262.604 7.73242C260.786 7.73242 259.229 8.07528 257.989 8.75554C256.655 9.4739 255.844 10.5895 255.583 12.0644C255.404 13.082 255.589 13.6208 255.975 14.2086C256.361 14.8072 256.922 15.2861 257.646 15.629C258.342 15.9609 259.104 16.2494 259.915 16.4779C260.846 16.7392 261.531 16.946 262.01 17.1038C262.321 17.2126 262.527 17.784 262.44 18.2793C262.353 18.7745 262.119 18.9922 261.809 19.1391C261.504 19.2806 261.129 19.3405 260.639 19.3405C259.975 19.3405 258.892 19.1609 259.104 17.9473L259.278 16.8262H254.326L254.266 17.2834C254.043 18.9813 254.462 20.2602 255.512 21.082C256.519 21.882 258.038 22.2847 260.024 22.2847C262.01 22.2847 263.665 21.8983 264.965 21.1364C266.277 20.3745 267.153 19.2044 267.382 17.9255C267.529 17.0929 267.458 16.3963 267.17 15.8521L267.159 15.8466Z" fill="#1B1448"></path><path d="M247.23 7.72119C245.798 7.72119 244.46 8.01507 243.24 8.58649C242 9.1688 240.944 10.0178 240.106 11.1008C239.268 12.1837 238.713 13.479 238.446 14.9592C238.032 17.3048 238.392 19.1333 239.529 20.3905C240.655 21.6422 242.364 22.2735 244.601 22.2735C246.005 22.2735 247.338 21.9905 248.557 21.4354C249.787 20.8803 250.849 20.0422 251.708 18.9429C252.557 17.8544 253.123 16.5102 253.401 14.9592C253.793 12.7388 253.445 10.9593 252.356 9.66403C251.262 8.37425 249.542 7.72119 247.24 7.72119H247.23ZM247.028 18.4422C246.451 19.0463 245.864 19.3293 245.172 19.3293C244.519 19.3293 244.019 19.0245 243.643 18.3932C243.262 17.7402 243.213 16.5864 243.502 14.9538C243.785 13.3701 244.226 12.2382 244.819 11.596C245.39 10.9756 245.994 10.6708 246.669 10.6708C247.344 10.6708 247.839 10.9865 248.209 11.6014C248.59 12.249 248.639 13.3756 248.362 14.9538C248.057 16.6572 247.611 17.8327 247.028 18.4422Z" fill="#1B1448"></path><path d="M221.396 7.72119C219.964 7.72119 218.626 8.01507 217.407 8.58649C216.166 9.1688 215.11 10.0178 214.272 11.1008C213.434 12.1837 212.879 13.479 212.612 14.9592C212.198 17.3048 212.558 19.1333 213.695 20.3905C214.822 21.6422 216.53 22.2735 218.767 22.2735C220.171 22.2735 221.505 21.9905 222.724 21.4354C223.953 20.8803 225.015 20.0422 225.875 18.9429C226.724 17.8544 227.289 16.5102 227.567 14.9592C227.959 12.7388 227.611 10.9593 226.522 9.66403C225.428 8.37425 223.709 7.72119 221.407 7.72119H221.396ZM218.979 11.5905C219.551 10.9701 220.155 10.6654 220.83 10.6654C221.504 10.6654 222 10.981 222.37 11.596C222.751 12.2436 222.8 13.3701 222.522 14.9483C222.217 16.6517 221.771 17.8272 221.189 18.4368C220.612 19.0408 220.024 19.3238 219.333 19.3238C218.68 19.3238 218.179 19.0191 217.804 18.3878C217.423 17.7347 217.374 16.581 217.662 14.9483C217.945 13.3647 218.386 12.2327 218.979 11.5905Z" fill="#1B1448"></path><path d="M20.6839 5.09849L21.7941 0.097168H4.67857L0.956137 14.1161H6.6323C7.07311 13.6753 7.64453 13.2345 8.35201 12.7828C9.09215 12.3148 10.0881 12.0807 11.3289 12.0807C12.5044 12.0807 13.3914 12.3801 13.9846 12.9678C14.5778 13.561 14.7683 14.5841 14.5561 16.0317C14.3493 17.4521 13.8649 18.5514 13.103 19.3188C12.3411 20.0861 11.2744 20.4725 9.90303 20.4725C7.28535 20.4725 6.01733 19.3188 6.08808 17.0059H0.226889C-0.164945 18.7909 -0.05066 20.3528 0.580629 21.6861C1.21192 23.0249 2.24048 24.0589 3.66088 24.7936C5.08673 25.5283 6.79012 25.8983 8.77106 25.8983C10.937 25.8983 12.8799 25.4847 14.5996 24.663C16.3193 23.8358 17.7288 22.682 18.8336 21.1963C19.7098 20.0154 20.3247 18.6712 20.6894 17.1637C21.62 12.2168 19.5084 8.33112 13.6635 8.33112C8.77106 8.33112 7.0078 10.9216 7.0078 10.9216L8.7112 5.09305H20.6785L20.6839 5.09849Z" fill="#0E56A7"></path><path d="M44.4171 25.8597L45.4402 21.2012C45.647 20.9128 45.9028 20.657 46.213 20.4393C46.5178 20.2271 46.8443 20.1183 47.1817 20.1183C47.4157 20.1183 47.6062 20.1672 47.7532 20.2706C47.8946 20.3686 47.9817 20.5591 48.0144 20.8421C48.047 21.1359 47.998 21.5767 47.8729 22.1427L47.0566 25.8597H49.8429L50.8661 21.1904C51.111 20.0638 51.0348 19.2094 50.6375 18.6543C50.2348 18.0938 49.598 17.8108 48.7436 17.8108C48.1287 17.8108 47.5844 17.9414 47.1382 18.2026C46.6919 18.4584 46.3164 18.8013 46.0117 19.2203C45.8375 19.4598 45.6851 19.7155 45.5491 19.9768L45.8593 17.9958H43.3559L41.6307 25.8597H44.4226H44.4171Z" fill="#0E56A7"></path><path d="M40.0253 25.8597L41.7287 18.0992L41.7505 18.0012H38.975L37.2498 25.8597H40.0253Z" fill="#0E56A7"></path><path d="M39.7532 14.4204L39.2253 16.8041H42.0008L42.5287 14.4204H39.7532Z" fill="#0E56A7"></path><path d="M33.5111 14.4204L30.5452 21.1034L29.7887 22.872L29.8105 21.1251L29.7506 14.4204H25.1357L22.6268 25.8598H25.4078L26.605 20.4068L27.1493 16.8639L27.7751 25.8598H30.5179L33.2662 20.4122L35.0513 16.902L34.0553 20.3904L32.8526 25.8598H35.6336L38.1478 14.4204H33.5111Z" fill="#0E56A7"></path><path d="M36.5859 8.70067H37.19C37.239 8.70067 37.2771 8.66257 37.2771 8.61903L37.4566 5.91429C37.4566 5.86531 37.4186 5.82178 37.3696 5.82178H36.4118C36.3628 5.82178 36.3192 5.86531 36.3247 5.91429L36.5043 8.61903C36.5043 8.66801 36.5478 8.70067 36.5913 8.70067H36.5859Z" fill="#0E56A7"></path><path d="M47.0239 7.44363C46.4144 6.85044 45.7559 6.32799 45.0648 5.87085C45.0267 5.84364 45.0158 5.79467 45.0376 5.75113L45.5056 4.94569C45.5328 4.90216 45.5872 4.88583 45.6253 4.91304L45.8702 5.05453C46.0117 5.13617 46.1913 5.08719 46.2729 4.94569L46.9586 3.75931C47.0403 3.61781 46.9913 3.43822 46.8498 3.35659L45.141 2.36612C44.9995 2.28449 44.8199 2.33347 44.7382 2.47496L44.0525 3.66135C43.9709 3.80284 44.0199 3.98243 44.1614 4.06407L44.4063 4.20556C44.4498 4.23277 44.4661 4.28719 44.4389 4.32529L43.9763 5.11984C43.9546 5.16338 43.9001 5.17426 43.8566 5.15249C42.3546 4.36338 40.7274 3.86271 39.073 3.64502C39.0294 3.63958 38.9968 3.60149 38.9968 3.55795V2.48585C38.9968 2.43687 39.0349 2.39877 39.0838 2.39877H39.9927C40.0417 2.39877 40.0798 2.36068 40.0798 2.3117V1.26137C40.0798 0.619196 39.5573 0.0913086 38.9097 0.0913086H34.8281C34.1859 0.0913086 33.658 0.613753 33.658 1.26137V2.3117C33.658 2.36068 33.6961 2.39877 33.7451 2.39877H34.6539C34.7029 2.39877 34.741 2.43687 34.741 2.48585V3.63958C34.741 3.68312 34.7084 3.72121 34.6703 3.72665C31.073 4.34706 27.7315 6.33888 25.6635 9.68035L25.7506 9.7511C27.5084 7.64499 29.854 6.03412 32.4662 5.2178C37.6907 3.50897 43.8022 5.13073 47.4702 9.22321C49.3477 11.2205 50.5613 13.7946 51.0566 16.4885L51.1654 16.4721C51.0729 13.1524 49.4892 9.77287 47.0076 7.43275L47.0239 7.44363Z" fill="#0E56A7"></path><path d="M41.7341 9.92503L42.2565 10.2243C42.2946 10.2461 42.3491 10.2352 42.3763 10.1971L43.8892 7.94409C43.9164 7.90055 43.9055 7.84069 43.862 7.81892L43.0348 7.34001C42.9912 7.3128 42.9314 7.32913 42.9096 7.37811L41.7069 9.81074C41.6851 9.85428 41.7069 9.90326 41.7395 9.92503H41.7341Z" fill="#0E56A7"></path><path d="M29.8377 7.97674L31.356 10.2243C31.3832 10.2624 31.4322 10.2733 31.4758 10.2516L31.9982 9.9468C32.0363 9.92503 32.0526 9.87061 32.0309 9.83251L30.8173 7.40532C30.7955 7.36178 30.7356 7.34002 30.6921 7.36723L29.8649 7.85158C29.8213 7.87879 29.805 7.93321 29.8377 7.97674Z" fill="#0E56A7"></path><path d="M45.5328 13.4952L45.8375 14.0176C45.8593 14.0557 45.9137 14.072 45.9518 14.0503L48.379 12.8367C48.4225 12.8149 48.4443 12.755 48.4171 12.7115L47.9328 11.8843C47.9055 11.8408 47.8511 11.8244 47.8076 11.8571L45.56 13.3754C45.5219 13.4026 45.511 13.4516 45.5328 13.4952Z" fill="#0E56A7"></path></svg>